<?xml version="1.0"?>
<svg xmlns="http://www.w3.org/2000/svg" height="512px" viewBox="0 0 496 496" width="512px" class=""><g><path d="m128 368h32v56h-32zm0 0" fill="#999" data-original="#999" class="" style="fill:#999"/><path d="m336 368h32v56h-32zm0 0" fill="#999" data-original="#999" class="" style="fill:#999"/><path d="m184 448c0 22.089844-17.910156 40-40 40s-40-17.910156-40-40 17.910156-40 40-40 40 17.910156 40 40zm0 0" fill="#656665" data-original="#656665" class="active-path" style="fill:#3F483F" data-old_color="#5A6C5A"/><path d="m392 448c0 22.089844-17.910156 40-40 40s-40-17.910156-40-40 17.910156-40 40-40 40 17.910156 40 40zm0 0" fill="#656665" data-original="#656665" class="active-path" style="fill:#3F483F" data-old_color="#5A6C5A"/><path d="m8 184h480v32h-480zm0 0" fill="#656665" data-original="#656665" class="active-path" style="fill:#3F483F" data-old_color="#5A6C5A"/><path d="m8 184h408v32h-408zm0 0" fill="#999" data-original="#999" class="" style="fill:#999"/><path d="m40 216 26.855469 134.273438c2.992187 14.957031 16.121093 25.726562 31.375 25.726562h299.539062c15.253907 0 28.382813-10.769531 31.375-25.726562l26.855469-134.273438" fill="#5789d6" data-original="#5789D6" class="" style="fill:#908787" data-old_color="#8E8686"/><path d="m44.800781 240 22.054688 110.273438c2.992187 14.957031 16.121093 25.726562 31.375 25.726562h298.410156c.152344-.585938.382813-1.128906.503906-1.726562l26.855469-134.273438zm0 0" fill="#699ce6" data-original="#699CE6" class="" style="fill:#908F86" data-old_color="#908F85"/><g fill="#5789d6"><path d="m120 248c-8.839844 0-16 7.160156-16 16v64c0 8.839844 7.160156 16 16 16s16-7.160156 16-16v-64c0-8.839844-7.160156-16-16-16zm0 0" data-original="#000000" class="" style="fill:#050505" data-old_color="#060606"/><path d="m248 248c-8.839844 0-16 7.160156-16 16v64c0 8.839844 7.160156 16 16 16s16-7.160156 16-16v-64c0-8.839844-7.160156-16-16-16zm0 0" data-original="#000000" class="" style="fill:#050505" data-old_color="#060606"/><path d="m184 248c-8.839844 0-16 7.160156-16 16v64c0 8.839844 7.160156 16 16 16s16-7.160156 16-16v-64c0-8.839844-7.160156-16-16-16zm0 0" data-original="#000000" class="" style="fill:#050505" data-old_color="#060606"/><path d="m312 248c-8.839844 0-16 7.160156-16 16v64c0 8.839844 7.160156 16 16 16s16-7.160156 16-16v-64c0-8.839844-7.160156-16-16-16zm0 0" data-original="#000000" class="" style="fill:#050505" data-old_color="#060606"/><path d="m376 248c-8.839844 0-16 7.160156-16 16v64c0 8.839844 7.160156 16 16 16s16-7.160156 16-16v-64c0-8.839844-7.160156-16-16-16zm0 0" data-original="#000000" class="" style="fill:#050505" data-old_color="#060606"/></g><path d="m424 120v-16l-16-16v-16l-16-16v-16l-16-16h-32l-16-16h-16l-32 32v80" fill="#eebc5a" data-original="#EEBC5A" class="" style="fill:#CDCBB8" data-old_color="#CDCBB9"/><path d="m400 88-16-16v-16l-16-16h-32l-16-16h-16l-24 24v72h136l-16-16zm0 0" fill="#f8cf6a" data-original="#F8CF6A" class="" style="fill:#D2CACA" data-old_color="#D2CBCB"/><path d="m32 184v-24l16-16h24l16-16v-16l16-16v-16l16-16h16l16-16h16v-24l16-16h24l16 16h24l16 16h16l16 16h32l16 16v16l16 16h16l16 16h32l16 16v16l16 16v16" fill="#eebc5a" data-original="#EEBC5A" class="" style="fill:#CDCBB8" data-old_color="#CDCBB9"/><path d="m64 168h-24l-8 8v8h408l-8-8v-16l-16-16h-32l-16-16h-16l-16-16v-16l-16-16h-32l-16-16h-16l-16-16h-24l-16-16h-24l-8 8v8h-8v24h-16l-16 16h-16l-16 16v16l-16 16v16zm0 0" fill="#f8cf6a" data-original="#F8CF6A" class="" style="fill:#D2CACA" data-old_color="#D2CBCB"/><path d="m488 224h-480c-4.414062 0-8-3.585938-8-8v-32c0-4.414062 3.585938-8 8-8h480c4.414062 0 8 3.585938 8 8v32c0 4.414062-3.585938 8-8 8zm-472-16h464v-16h-464zm0 0" data-original="#000000" class="" style="fill:#050505" data-old_color="#060606"/><path d="m397.769531 384h-299.539062c-19 0-35.496094-13.519531-39.222657-32.152344l-26.847656-134.28125 15.6875-3.140625 26.855469 134.277344c2.234375 11.183594 12.128906 19.296875 23.527344 19.296875h299.53125c11.398437 0 21.292969-8.113281 23.535156-19.296875l26.855469-134.277344 15.6875 3.140625-26.855469 134.28125c-3.71875 18.632813-20.214844 32.152344-39.214844 32.152344zm0 0" data-original="#000000" class="" style="fill:#050505" data-old_color="#060606"/><path d="m120 352c-13.230469 0-24-10.769531-24-24v-64c0-13.230469 10.769531-24 24-24s24 10.769531 24 24v64c0 13.230469-10.769531 24-24 24zm0-96c-4.40625 0-8 3.59375-8 8v64c0 4.40625 3.59375 8 8 8s8-3.59375 8-8v-64c0-4.40625-3.59375-8-8-8zm0 0" data-original="#000000" class="" style="fill:#050505" data-old_color="#060606"/><path d="m248 352c-13.230469 0-24-10.769531-24-24v-64c0-13.230469 10.769531-24 24-24s24 10.769531 24 24v64c0 13.230469-10.769531 24-24 24zm0-96c-4.40625 0-8 3.59375-8 8v64c0 4.40625 3.59375 8 8 8s8-3.59375 8-8v-64c0-4.40625-3.59375-8-8-8zm0 0" data-original="#000000" class="" style="fill:#050505" data-old_color="#060606"/><path d="m184 352c-13.230469 0-24-10.769531-24-24v-64c0-13.230469 10.769531-24 24-24s24 10.769531 24 24v64c0 13.230469-10.769531 24-24 24zm0-96c-4.40625 0-8 3.59375-8 8v64c0 4.40625 3.59375 8 8 8s8-3.59375 8-8v-64c0-4.40625-3.59375-8-8-8zm0 0" data-original="#000000" class="" style="fill:#050505" data-old_color="#060606"/><path d="m312 352c-13.230469 0-24-10.769531-24-24v-64c0-13.230469 10.769531-24 24-24s24 10.769531 24 24v64c0 13.230469-10.769531 24-24 24zm0-96c-4.40625 0-8 3.59375-8 8v64c0 4.40625 3.59375 8 8 8s8-3.59375 8-8v-64c0-4.40625-3.59375-8-8-8zm0 0" data-original="#000000" class="" style="fill:#050505" data-old_color="#060606"/><path d="m376 352c-13.230469 0-24-10.769531-24-24v-64c0-13.230469 10.769531-24 24-24s24 10.769531 24 24v64c0 13.230469-10.769531 24-24 24zm0-96c-4.40625 0-8 3.59375-8 8v64c0 4.40625 3.59375 8 8 8s8-3.59375 8-8v-64c0-4.40625-3.59375-8-8-8zm0 0" data-original="#000000" class="" style="fill:#050505" data-old_color="#060606"/><path d="m144 496c-26.472656 0-48-21.527344-48-48s21.527344-48 48-48 48 21.527344 48 48-21.527344 48-48 48zm0-80c-17.648438 0-32 14.351562-32 32s14.351562 32 32 32 32-14.351562 32-32-14.351562-32-32-32zm0 0" data-original="#000000" class="" style="fill:#050505" data-old_color="#060606"/><path d="m352 496c-26.472656 0-48-21.527344-48-48s21.527344-48 48-48 48 21.527344 48 48-21.527344 48-48 48zm0-80c-17.648438 0-32 14.351562-32 32s14.351562 32 32 32 32-14.351562 32-32-14.351562-32-32-32zm0 0" data-original="#000000" class="" style="fill:#050505" data-old_color="#060606"/><path d="m136 408h16v24h-16zm0 0" data-original="#000000" class="" style="fill:#050505" data-old_color="#060606"/><path d="m136 464h16v24h-16zm0 0" data-original="#000000" class="" style="fill:#050505" data-old_color="#060606"/><path d="m104 440h24v16h-24zm0 0" data-original="#000000" class="" style="fill:#050505" data-old_color="#060606"/><path d="m160 440h24v16h-24zm0 0" data-original="#000000" class="" style="fill:#050505" data-old_color="#060606"/><path d="m344 408h16v24h-16zm0 0" data-original="#000000" class="" style="fill:#050505" data-old_color="#060606"/><path d="m344 464h16v24h-16zm0 0" data-original="#000000" class="" style="fill:#050505" data-old_color="#060606"/><path d="m312 440h24v16h-24zm0 0" data-original="#000000" class="" style="fill:#050505" data-old_color="#060606"/><path d="m368 440h24v16h-24zm0 0" data-original="#000000" class="" style="fill:#050505" data-old_color="#060606"/><path d="m120 376h16v32h-16zm0 0" data-original="#000000" class="" style="fill:#050505" data-old_color="#060606"/><path d="m152 376h16v32h-16zm0 0" data-original="#000000" class="" style="fill:#050505" data-old_color="#060606"/><path d="m328 376h16v32h-16zm0 0" data-original="#000000" class="" style="fill:#050505" data-old_color="#060606"/><path d="m360 376h16v32h-16zm0 0" data-original="#000000" class="" style="fill:#050505" data-old_color="#060606"/><path d="m464 184h-16v-12.6875l-13.65625-13.65625c-1.503906-1.496094-2.34375-3.535156-2.34375-5.65625v-12.6875l-11.3125-11.3125h-28.6875c-2.121094 0-4.160156-.839844-5.65625-2.34375l-13.65625-13.65625h-12.6875c-2.121094 0-4.160156-.839844-5.65625-2.34375l-16-16c-1.503906-1.496094-2.34375-3.535156-2.34375-5.65625v-12.6875l-11.3125-11.3125h-28.6875c-2.121094 0-4.160156-.839844-5.65625-2.34375l-13.65625-13.65625h-12.6875c-2.121094 0-4.160156-.839844-5.65625-2.34375l-13.65625-13.65625h-20.6875c-2.121094 0-4.160156-.839844-5.65625-2.34375l-13.65625-13.65625h-17.375l-11.3125 11.3125v20.6875c0 4.414062-3.585938 8-8 8h-12.6875l-13.65625 13.65625c-1.496094 1.503906-3.535156 2.34375-5.65625 2.34375h-12.6875l-11.3125 11.3125v12.6875c0 2.121094-.839844 4.160156-2.34375 5.65625l-13.65625 13.65625v12.6875c0 2.121094-.839844 4.160156-2.34375 5.65625l-16 16c-1.496094 1.503906-3.535156 2.34375-5.65625 2.34375h-20.6875l-11.3125 11.3125v20.6875h-16v-24c0-2.121094.839844-4.160156 2.34375-5.65625l16-16c1.496094-1.503906 3.535156-2.34375 5.65625-2.34375h20.6875l11.3125-11.3125v-12.6875c0-2.121094.839844-4.160156 2.34375-5.65625l13.65625-13.65625v-12.6875c0-2.121094.839844-4.160156 2.34375-5.65625l16-16c1.496094-1.503906 3.535156-2.34375 5.65625-2.34375h12.6875l13.65625-13.65625c1.496094-1.503906 3.535156-2.34375 5.65625-2.34375h8v-16c0-2.121094.839844-4.160156 2.34375-5.65625l16-16c1.496094-1.503906 3.535156-2.34375 5.65625-2.34375h24c2.121094 0 4.160156.839844 5.65625 2.34375l13.65625 13.65625h20.6875c2.121094 0 4.160156.839844 5.65625 2.34375l13.65625 13.65625h12.6875c2.121094 0 4.160156.839844 5.65625 2.34375l13.65625 13.65625h28.6875c2.121094 0 4.160156.839844 5.65625 2.34375l16 16c1.503906 1.496094 2.34375 3.535156 2.34375 5.65625v12.6875l11.3125 11.3125h12.6875c2.121094 0 4.160156.839844 5.65625 2.34375l13.65625 13.65625h28.6875c2.121094 0 4.160156.839844 5.65625 2.34375l16 16c1.503906 1.496094 2.34375 3.535156 2.34375 5.65625v12.6875l13.65625 13.65625c1.503906 1.496094 2.34375 3.535156 2.34375 5.65625zm0 0" data-original="#000000" class="" style="fill:#050505" data-old_color="#060606"/><path d="m432 120h-16v-12.6875l-13.65625-13.65625c-1.503906-1.496094-2.34375-3.535156-2.34375-5.65625v-12.6875l-13.65625-13.65625c-1.503906-1.496094-2.34375-3.535156-2.34375-5.65625v-12.6875l-11.3125-11.3125h-28.6875c-2.121094 0-4.160156-.839844-5.65625-2.34375l-13.65625-13.65625h-9.375l-29.65625 29.65625-11.3125-11.3125 32-32c1.496094-1.503906 3.535156-2.34375 5.65625-2.34375h16c2.121094 0 4.160156.839844 5.65625 2.34375l13.65625 13.65625h28.6875c2.121094 0 4.160156.839844 5.65625 2.34375l16 16c1.503906 1.496094 2.34375 3.535156 2.34375 5.65625v12.6875l13.65625 13.65625c1.503906 1.496094 2.34375 3.535156 2.34375 5.65625v12.6875l13.65625 13.65625c1.503906 1.496094 2.34375 3.535156 2.34375 5.65625zm0 0" data-original="#000000" class="" style="fill:#050505" data-old_color="#060606"/><path d="m336 184h-16v-12.6875l-13.65625-13.65625c-1.503906-1.496094-2.34375-3.535156-2.34375-5.65625v-12.6875l-13.65625-13.65625c-1.503906-1.496094-2.34375-3.535156-2.34375-5.65625v-12.6875l-11.3125-11.3125h-28.6875c-2.121094 0-4.160156-.839844-5.65625-2.34375l-13.65625-13.65625h-9.375l-29.65625 29.65625-11.3125-11.3125 32-32c1.496094-1.503906 3.535156-2.34375 5.65625-2.34375h16c2.121094 0 4.160156.839844 5.65625 2.34375l13.65625 13.65625h28.6875c2.121094 0 4.160156.839844 5.65625 2.34375l16 16c1.503906 1.496094 2.34375 3.535156 2.34375 5.65625v12.6875l13.65625 13.65625c1.503906 1.496094 2.34375 3.535156 2.34375 5.65625v12.6875l13.65625 13.65625c1.503906 1.496094 2.34375 3.535156 2.34375 5.65625zm0 0" data-original="#000000" class="" style="fill:#050505" data-old_color="#060606"/></g> </svg>
